<?xml version="1.0" encoding="UTF-8"?>
<svg width="22px" height="28px" viewBox="0 0 22 28" version="1.1" xmlns="http://www.w3.org/2000/svg" xmlns:xlink="http://www.w3.org/1999/xlink">
    <!-- Generator: Sketch 58 (84663) - https://sketch.com -->
    <title>noun_CV_2428474</title>
    <desc>Created with Sketch.</desc>
    <g id="desktop" stroke="none" stroke-width="1" fill="none" fill-rule="evenodd">
        <g id="5.3.2.-Profile.-Limit-partially-spent.-Details" transform="translate(-554.000000, -388.000000)" fill="#000000" fill-rule="nonzero">
            <g id="Group-7" transform="translate(554.000000, 362.000000)">
                <g id="noun_CV_2428474" transform="translate(0.000000, 26.000000)">
                    <g id="Group">
                        <path d="M22,3.325 C22,1.4875 20.5615385,0 18.7846154,0 L3.21538462,0 C1.43846154,0 0,1.4875 0,3.325 L0,24.675 C0,26.5125 1.43846154,28 3.21538462,28 L18.7846154,28 C20.5615385,28 22,26.5125 22,24.675 L22,3.325 Z M20.3076923,24.675 C20.3076923,25.55 19.6307692,26.25 18.7846154,26.25 L3.21538462,26.25 C2.36923077,26.25 1.69230769,25.55 1.69230769,24.675 L1.69230769,3.325 C1.69230769,2.45 2.36923077,1.75 3.21538462,1.75 L18.7846154,1.75 C19.6307692,1.75 20.3076923,2.45 20.3076923,3.325 L20.3076923,24.675 Z" id="Shape"></path>
                        <path d="M5.83846154,15.75 L15.8230769,15.75 C16.0769231,15.75 16.3307692,15.6625 16.5,15.4 C16.6692308,15.225 16.7538462,14.9625 16.6692308,14.7 C16.3307692,12.6 15.0615385,10.9375 13.3692308,10.15 C13.8769231,9.5375 14.2153846,8.75 14.2153846,7.7875 C14.2153846,5.8625 12.6923077,4.2875 10.8307692,4.2875 C8.96923077,4.2875 7.44615385,5.8625 7.44615385,7.7875 C7.44615385,8.6625 7.78461538,9.45 8.29230769,10.15 C6.6,11.025 5.24615385,12.6875 4.99230769,14.7 C4.99230769,14.9625 4.99230769,15.225 5.16153846,15.4 C5.33076923,15.6625 5.58461538,15.75 5.83846154,15.75 Z M9.13846154,7.875 C9.13846154,6.9125 9.9,6.125 10.8307692,6.125 C11.7615385,6.125 12.5230769,6.9125 12.5230769,7.875 C12.5230769,8.8375 11.7615385,9.625 10.8307692,9.625 C9.9,9.625 9.13846154,8.8375 9.13846154,7.875 Z M10.8307692,11.375 C12.5230769,11.375 14.0461538,12.425 14.7230769,14 L6.93846154,14 C7.61538462,12.425 9.13846154,11.375 10.8307692,11.375 Z" id="Shape"></path>
                        <path d="M17.7692308,18.375 L4.23076923,18.375 C3.72307692,18.375 3.38461538,18.725 3.38461538,19.25 C3.38461538,19.775 3.72307692,20.125 4.23076923,20.125 L17.7692308,20.125 C18.2769231,20.125 18.6153846,19.775 18.6153846,19.25 C18.6153846,18.725 18.2769231,18.375 17.7692308,18.375 Z" id="Path"></path>
                        <path d="M17.7692308,21.875 L4.23076923,21.875 C3.72307692,21.875 3.38461538,22.225 3.38461538,22.75 C3.38461538,23.275 3.72307692,23.625 4.23076923,23.625 L17.7692308,23.625 C18.2769231,23.625 18.6153846,23.275 18.6153846,22.75 C18.6153846,22.225 18.2769231,21.875 17.7692308,21.875 Z" id="Path"></path>
                    </g>
                </g>
            </g>
        </g>
    </g>
</svg>