<?xml version="1.0" encoding="UTF-8"?>
<svg width="64px" height="48px" viewBox="0 0 64 48" version="1.1" xmlns="http://www.w3.org/2000/svg" xmlns:xlink="http://www.w3.org/1999/xlink">
    <!-- Generator: Sketch 58 (84663) - https://sketch.com -->
    <title>noun_rejected_2155160 2</title>
    <desc>Created with Sketch.</desc>
    <g id="desktop" stroke="none" stroke-width="1" fill="none" fill-rule="evenodd">
        <g id="payment-result-screen" transform="translate(-156.000000, -137.000000)">
            <g id="noun_rejected_2155160-2" transform="translate(156.000000, 137.000000)">
                <g id="noun_rejected_2155160">
                    <circle id="Oval" fill="#D3617E" cx="32" cy="37.7142857" r="9.14285714"></circle>
                    <rect id="Rectangle" fill="#000000" fill-rule="nonzero" x="4.57142857" y="13.7142857" width="13.7142857" height="2.28571429" rx="1"></rect>
                    <rect id="Rectangle" fill="#000000" fill-rule="nonzero" x="4.57142857" y="18.2857143" width="21.7142857" height="2.28571429" rx="1"></rect>
                    <path d="M61.7142857,0 L2.28571429,0 C1.02334914,0 0,1.02334914 0,2.28571429 L0,37.7142857 C0,38.9766509 1.02334914,40 2.28571429,40 L19.4285714,40 L19.4285714,37.7142857 C19.4285714,30.7712774 25.0569917,25.1428571 32,25.1428571 C38.9430083,25.1428571 44.5714286,30.7712774 44.5714286,37.7142857 L44.5714286,40 L61.7142857,40 C62.9766509,40 64,38.9766509 64,37.7142857 L64,2.28571429 C64,1.02334914 62.9766509,0 61.7142857,0 Z M61.7142857,37.7142857 L46.8571429,37.7142857 C46.8571429,29.5089123 40.2053734,22.8571429 32,22.8571429 C23.7946266,22.8571429 17.1428571,29.5089123 17.1428571,37.7142857 L2.28571429,37.7142857 L2.28571429,11.4285714 L61.7142857,11.4285714 L61.7142857,37.7142857 Z M2.28571429,9.14285714 L2.28571429,2.28571429 L61.7142857,2.28571429 L61.7142857,9.14285714 L2.28571429,9.14285714 Z" id="Shape" fill="#000000" fill-rule="nonzero"></path>
                    <path d="M32,27.4285714 C26.3193569,27.4285714 21.7142857,32.0336426 21.7142857,37.7142857 C21.7142857,43.3949289 26.3193569,48 32,48 C37.6806431,48 42.2857143,43.3949289 42.2857143,37.7142857 C42.2857143,32.0336426 37.6806431,27.4285714 32,27.4285714 Z M32,45.7142857 C27.581722,45.7142857 24,42.1325637 24,37.7142857 C24,33.2960077 27.581722,29.7142857 32,29.7142857 C36.418278,29.7142857 40,33.2960077 40,37.7142857 C40,42.1325637 36.418278,45.7142857 32,45.7142857 Z" id="Shape" fill="#000000" fill-rule="nonzero"></path>
                    <path d="M32,36.1028571 L29.5714286,33.6742857 C29.1264449,33.229302 28.4049837,33.229302 27.96,33.6742857 C27.5150163,34.1192694 27.5150163,34.8407306 27.96,35.2857143 L30.3885714,37.7142857 L30.3885714,37.7142857 L27.96,40.1428571 C27.5150163,40.5878409 27.5150163,41.309302 27.96,41.7542857 C28.4049837,42.1992694 29.1264449,42.1992694 29.5714286,41.7542857 L32,39.3257143 L32,39.3257143 L34.4285714,41.7542857 C34.8735551,42.1992694 35.5950163,42.1992694 36.04,41.7542857 C36.4849837,41.309302 36.4849837,40.5878409 36.04,40.1428571 L33.6114286,37.7142857 L33.6114286,37.7142857 L36.04,35.2857143 C36.4849837,34.8407306 36.4849837,34.1192694 36.04,33.6742857 C35.5950163,33.229302 34.8735551,33.229302 34.4285714,33.6742857 L32,36.1028571 L32,36.1028571 Z" id="Path" fill="#FFFFFF" fill-rule="nonzero"></path>
                </g>
            </g>
        </g>
    </g>
</svg>