<?xml version="1.0" encoding="UTF-8"?>
<svg width="93px" height="70px" viewBox="0 0 93 70" version="1.1" xmlns="http://www.w3.org/2000/svg" xmlns:xlink="http://www.w3.org/1999/xlink">
    <!-- Generator: Sketch 58 (84663) - https://sketch.com -->
    <title>noun_rejected_2155160 2</title>
    <desc>Created with Sketch.</desc>
    <g id="Desktop" stroke="none" stroke-width="1" fill="none" fill-rule="evenodd">
        <g id="payment-result-screen" transform="translate(-857.000000, -152.000000)">
            <g id="noun_rejected_2155160-2" transform="translate(857.000000, 152.000000)">
                <g id="noun_rejected_2155160">
                    <ellipse id="Oval" fill="#D3617E" cx="46.5" cy="55" rx="13.2857143" ry="13.3333333"></ellipse>
                    <rect id="Rectangle" fill="#000000" fill-rule="nonzero" x="6.64285714" y="20" width="19.9285714" height="3.33333333" rx="1"></rect>
                    <rect id="Rectangle" fill="#000000" fill-rule="nonzero" x="6.64285714" y="26.6666667" width="31.5535714" height="3.33333333" rx="1"></rect>
                    <path d="M89.6785714,0 L3.32142857,0 C1.48705422,0 0,1.49238417 0,3.33333333 L0,55 C0,56.8409492 1.48705422,58.3333333 3.32142857,58.3333333 L28.2321429,58.3333333 L28.2321429,55 C28.2321429,44.8747796 36.4109411,36.6666667 46.5,36.6666667 C56.5890589,36.6666667 64.7678571,44.8747796 64.7678571,55 L64.7678571,58.3333333 L89.6785714,58.3333333 C91.5129458,58.3333333 93,56.8409492 93,55 L93,3.33333333 C93,1.49238417 91.5129458,0 89.6785714,0 Z M89.6785714,55 L68.0892857,55 C68.0892857,43.0338304 58.4234333,33.3333333 46.5,33.3333333 C34.5765667,33.3333333 24.9107143,43.0338304 24.9107143,55 L3.32142857,55 L3.32142857,16.6666667 L89.6785714,16.6666667 L89.6785714,55 Z M3.32142857,13.3333333 L3.32142857,3.33333333 L89.6785714,3.33333333 L89.6785714,13.3333333 L3.32142857,13.3333333 Z" id="Shape" fill="#000000" fill-rule="nonzero"></path>
                    <path d="M46.5,40 C38.2453154,40 31.5535714,46.7157288 31.5535714,55 C31.5535714,63.2842712 38.2453154,70 46.5,70 C54.7546846,70 61.4464286,63.2842712 61.4464286,55 C61.4464286,46.7157288 54.7546846,40 46.5,40 Z M46.5,66.6666667 C40.0796898,66.6666667 34.875,61.4433221 34.875,55 C34.875,48.5566779 40.0796898,43.3333333 46.5,43.3333333 C52.9203102,43.3333333 58.125,48.5566779 58.125,55 C58.125,61.4433221 52.9203102,66.6666667 46.5,66.6666667 Z" id="Shape" fill="#000000" fill-rule="nonzero"></path>
                    <path d="M46.5,52.65 L42.9709821,49.1083333 C42.3266745,48.4617164 41.2801734,48.4598443 40.6335564,49.1041519 C40.6321601,49.1055432 40.6307663,49.106937 40.629375,49.1083333 C39.9820815,49.7579468 39.9820815,50.8087198 40.629375,51.4583333 L44.1583929,55 L44.1583929,55 L40.629375,58.5416667 C39.9820815,59.1912802 39.9820815,60.2420532 40.629375,60.8916667 C41.2736826,61.5382836 42.3201837,61.5401557 42.9668007,60.8958481 C42.968197,60.8944568 42.9695908,60.893063 42.9709821,60.8916667 L46.5,57.35 L46.5,57.35 L50.0290179,60.8916667 C50.6733255,61.5382836 51.7198266,61.5401557 52.3664436,60.8958481 C52.3678399,60.8944568 52.3692337,60.893063 52.370625,60.8916667 C53.0179185,60.2420532 53.0179185,59.1912802 52.370625,58.5416667 L48.8416071,55 L48.8416071,55 L52.370625,51.4583333 C53.0179185,50.8087198 53.0179185,49.7579468 52.370625,49.1083333 C51.7263174,48.4617164 50.6798163,48.4598443 50.0331993,49.1041519 C50.031803,49.1055432 50.0304092,49.106937 50.0290179,49.1083333 L46.5,52.65 L46.5,52.65 Z" id="Path" fill="#FFFFFF" fill-rule="nonzero"></path>
                </g>
            </g>
        </g>
    </g>
</svg>