<?xml version="1.0" encoding="UTF-8"?>
<svg width="600px" height="716px" viewBox="0 0 600 716" version="1.1" xmlns="http://www.w3.org/2000/svg" xmlns:xlink="http://www.w3.org/1999/xlink">
    <!-- Generator: Sketch 58 (84663) - https://sketch.com -->
    <title>Path 7</title>
    <desc>Created with Sketch.</desc>
    <g id="Desktop" stroke="none" stroke-width="1" fill="none" fill-rule="evenodd">
        <g id="payment-result-screen" transform="translate(-604.000000, -82.000000)" fill="#F5F6F5">
            <polygon id="Combined-Shape-Copy" points="604 780.669863 604 798 625.428571 780.669863 646.857143 798 668.285714 780.669863 689.714286 798 711.142857 780.669863 732.571429 798 754 780.669863 775.428571 798 796.857143 780.669863 818.285714 798 839.714286 780.669863 861.142857 798 882.571429 780.669863 904 798 925.428571 780.669863 946.857143 798 968.285714 780.669863 989.714286 798 1011.14286 780.669863 1032.57143 798 1054 780.669863 1075.42857 798 1096.85714 780.669863 1118.28571 798 1139.71429 780.669863 1161.14286 798 1182.57143 780.669863 1204 798 1204 82 604 82"></polygon>
        </g>
    </g>
</svg>