<?xml version="1.0" encoding="UTF-8"?>
<svg width="25px" height="25px" viewBox="0 0 25 25" version="1.1" xmlns="http://www.w3.org/2000/svg" xmlns:xlink="http://www.w3.org/1999/xlink">
    <!-- Generator: Sketch 58 (84663) - https://sketch.com -->
    <title>Ok</title>
    <desc>Created with Sketch.</desc>
    <g id="desktop" stroke="none" stroke-width="1" fill="none" fill-rule="evenodd">
        <g id="2.2.1.-all-orders-payment-" transform="translate(-861.000000, -367.000000)">
            <g id="Ok" transform="translate(861.000000, 367.000000)">
                <circle id="Oval" fill="#3EEDBF" cx="12.5" cy="12.5" r="12.5"></circle>
                <path d="M10.4695781,18.4210526 C10.2119878,18.4210526 9.97049677,18.3258927 9.79340339,18.1514327 L5.57536091,13.8692342 C5.17287594,13.5044544 5.15677654,12.8859146 5.54316211,12.4894147 C5.91344828,12.0929148 6.54132484,12.0770549 6.94380981,12.4576947 L10.0348944,14.630514 C10.2119878,14.7891139 10.4856775,14.7573939 10.6305721,14.567074 L17.9557986,5.6537571 C18.2777865,5.22553725 18.9056631,5.13037728 19.3403469,5.46343717 C19.7750306,5.78063706 19.871627,6.39917684 19.5335396,6.82739669 L11.2584487,18.0245528 C11.0813553,18.2465927 10.8237649,18.3893326 10.5500751,18.4051926 C10.5178763,18.4210526 10.5017769,18.4210526 10.4695781,18.4210526 Z" id="Path" fill="#FFFFFF" fill-rule="nonzero"></path>
            </g>
        </g>
    </g>
</svg>