<?xml version="1.0" encoding="UTF-8"?>
<svg class="icon-support" width="30px" height="30px" viewBox="0 0 30 30" version="1.1" xmlns="http://www.w3.org/2000/svg" xmlns:xlink="http://www.w3.org/1999/xlink">
    <!-- Generator: Sketch 59.1 (86144) - https://sketch.com -->
    <title>Support</title>
    <desc>Created with Sketch.</desc>
    <g id="Support" stroke="none" stroke-width="1" fill="none" fill-rule="evenodd">
        <g id="noun_chat_1233720" transform="translate(0.000000, 2.000000)" fill="#C7C7C7" fill-rule="nonzero">
            <g id="Group">
                <path d="M26.25,0.18 L3.15,0.18 C1.5,0.18 0.15,1.53 0.15,3.18 L0.15,16.98 C0.15,18.63 1.5,19.98 3.15,19.98 L10.89,19.98 L18.42,26.01 C18.57,26.13 18.78,26.22 18.99,26.22 C19.11,26.22 19.26,26.19 19.38,26.13 C19.68,25.98 19.89,25.65 19.89,25.32 L19.89,19.98 L26.28,19.98 C27.93,19.98 29.28,18.63 29.28,16.98 L29.28,3.18 C29.25,1.53 27.9,0.18 26.25,0.18 Z M27.45,16.98 C27.45,17.64 26.91,18.18 26.25,18.18 L18.96,18.18 C18.45,18.18 18.06,18.57 18.06,19.08 L18.06,23.43 L11.76,18.39 C11.61,18.27 11.4,18.18 11.19,18.18 L3.15,18.18 C2.49,18.18 1.95,17.64 1.95,16.98 L1.95,3.18 C1.95,2.52 2.49,1.98 3.15,1.98 L26.25,1.98 C26.91,1.98 27.45,2.52 27.45,3.18 L27.45,16.98 Z" id="Shape"></path>
                <path d="M6.86956522,8 L15.1304348,8 C15.6231884,8 16,7.56666667 16,7 C16,6.43333333 15.6231884,6 15.1304348,6 L6.86956522,6 C6.37681159,6 6,6.43333333 6,7 C6,7.56666667 6.4057971,8 6.86956522,8 Z" id="Path"></path>
                <path d="M21.1192661,10 L6.88073394,10 C6.38165138,10 6,10.4333333 6,11 C6,11.5666667 6.38165138,12 6.88073394,12 L21.1192661,12 C21.6183486,12 22,11.5666667 22,11 C22,10.4333333 21.6183486,10 21.1192661,10 Z" id="Path"></path>
            </g>
        </g>
    </g>
</svg>