<?xml version="1.0" encoding="UTF-8"?>
<svg width="30px" height="30px" viewBox="0 0 30 30" version="1.1" xmlns="http://www.w3.org/2000/svg" xmlns:xlink="http://www.w3.org/1999/xlink">
    <!-- Generator: Sketch 59.1 (86144) - https://sketch.com -->
    <title>Support active</title>
    <desc>Created with Sketch.</desc>
    <g id="Support-active" stroke="none" stroke-width="1" fill="none" fill-rule="evenodd">
        <g id="Group-2" transform="translate(0.000000, 2.000000)">
            <path d="M26.1,-4.61852778e-14 L3,-4.61852778e-14 C1.35,-4.61852778e-14 -1.77635684e-15,1.35 -1.77635684e-15,3 L-1.77635684e-15,16.8 C-1.77635684e-15,18.45 1.35,19.8 3,19.8 L10.74,19.8 L18.27,25.83 C18.42,25.95 18.63,26.04 18.84,26.04 C18.96,26.04 19.11,26.01 19.23,25.95 C19.53,25.8 19.74,25.47 19.74,25.14 L19.74,19.8 L26.13,19.8 C27.78,19.8 29.13,18.45 29.13,16.8 L29.13,3 C29.1,1.35 27.75,-4.61852778e-14 26.1,-4.61852778e-14 Z" id="Combined-Shape" fill="#8FFFE8"></path>
            <path d="M6.86956522,8 L15.1304348,8 C15.6231884,8 16,7.56666667 16,7 C16,6.43333333 15.6231884,6 15.1304348,6 L6.86956522,6 C6.37681159,6 6,6.43333333 6,7 C6,7.56666667 6.4057971,8 6.86956522,8 Z" id="Path-Copy-5" fill="#FFFFFF" fill-rule="nonzero"></path>
            <path d="M21.1192661,10 L6.88073394,10 C6.38165138,10 6,10.4333333 6,11 C6,11.5666667 6.38165138,12 6.88073394,12 L21.1192661,12 C21.6183486,12 22,11.5666667 22,11 C22,10.4333333 21.6183486,10 21.1192661,10 Z" id="Path-Copy-6" fill="#FFFFFF" fill-rule="nonzero"></path>
        </g>
    </g>
</svg>