<?xml version="1.0" encoding="UTF-8"?>
<svg width="16px" height="15px" viewBox="0 0 16 15" version="1.1" xmlns="http://www.w3.org/2000/svg" xmlns:xlink="http://www.w3.org/1999/xlink">
    <!-- Generator: Sketch 60.1 (88133) - https://sketch.com -->
    <title>Combined Shape</title>
    <desc>Created with Sketch.</desc>
    <g id="desktop" stroke="none" stroke-width="1" fill="none" fill-rule="evenodd">
        <g id="Artboard">
            <path d="M8.4840521,0.126816497 C8.64617612,0.217231673 8.77993339,0.350988948 8.87034857,0.513112964 L15.8673329,13.0594494 C16.136333,13.5417952 15.9633822,14.1508813 15.4810365,14.4198814 C15.3321308,14.5029248 15.1644654,14.5465172 14.9939687,14.5465172 L1,14.5465172 C0.44771525,14.5465172 7.8259621e-13,14.0988019 7.82485188e-13,13.5465172 C7.82485188e-13,13.3760205 0.0435923799,13.2083551 0.126635801,13.0594494 L7.12362017,0.513112964 C7.39262025,0.0307672362 8.00170637,-0.142183583 8.4840521,0.126816497 Z M8.01566798,11.0308307 C7.46338323,11.0308307 7.01566798,11.4785459 7.01566798,12.0308307 C7.01566798,12.5831154 7.46338323,13.0308307 8.01566798,13.0308307 C8.56795273,13.0308307 9.01566798,12.5831154 9.01566798,12.0308307 C9.01566798,11.4785459 8.56795273,11.0308307 8.01566798,11.0308307 Z M7.99708136,4.03687959 C7.44479661,4.03687959 6.99708136,4.48459484 6.99708136,5.03687959 L6.99708136,5.03687959 L6.99708136,9.04897739 C6.99708136,9.60126214 7.44479661,10.0489774 7.99708136,10.0489774 C8.54936611,10.0489774 8.99708136,9.60126214 8.99708136,9.04897739 L8.99708136,9.04897739 L8.99708136,5.03687959 C8.99708136,4.48459484 8.54936611,4.03687959 7.99708136,4.03687959 Z" id="Combined-Shape"></path>
        </g>
    </g>
</svg>