<?xml version="1.0" encoding="UTF-8"?>
<svg width="50px" height="50px" viewBox="0 0 50 50" version="1.1" xmlns="http://www.w3.org/2000/svg" xmlns:xlink="http://www.w3.org/1999/xlink">
    <!-- Generator: Sketch 58 (84663) - https://sketch.com -->
    <title>Ok</title>
    <desc>Created with Sketch.</desc>
    <g id="desktop" stroke="none" stroke-width="1" fill="none" fill-rule="evenodd">
        <g id="3.-data-confirmation-copy-2" transform="translate(-695.000000, -237.000000)">
            <g id="Ok" transform="translate(695.000000, 237.000000)">
                <circle id="Oval" fill="#3EEDBF" cx="25" cy="25" r="25"></circle>
                <path d="M20.9391563,36.8421053 C20.4239755,36.8421053 19.9409935,36.6517853 19.5868068,36.3028655 L11.1507218,27.7384685 C10.3457519,27.0089087 10.3135531,25.7718291 11.0863242,24.9788294 C11.8268966,24.1858297 13.0826497,24.1541097 13.8876196,24.9153894 L20.0697887,29.2610279 C20.4239755,29.5782278 20.9713551,29.5147878 21.2611442,29.134148 L35.9115971,11.3075142 C36.5555731,10.4510745 37.8113262,10.2607546 38.6806937,10.9268743 C39.5500613,11.5612741 39.743254,12.7983537 39.0670793,13.6547934 L22.5168974,36.0491055 C22.1627106,36.4931854 21.6475298,36.7786653 21.1001503,36.8103853 C21.0357527,36.8421053 21.0035539,36.8421053 20.9391563,36.8421053 Z" id="Path" fill="#FFFFFF" fill-rule="nonzero"></path>
            </g>
        </g>
    </g>
</svg>