<?xml version="1.0" encoding="UTF-8"?>
<svg width="120px" height="73px" viewBox="0 0 120 73" version="1.1" xmlns="http://www.w3.org/2000/svg" xmlns:xlink="http://www.w3.org/1999/xlink">
    <!-- Generator: Sketch 58 (84663) - https://sketch.com -->
    <title>noun_Upload_97261</title>
    <desc>Created with Sketch.</desc>
    <g id="desktop" stroke="none" stroke-width="1" fill="none" fill-rule="evenodd">
        <g id="2.1.image-upload-hover" transform="translate(-659.000000, -360.000000)" fill="#3EEDBF" fill-rule="nonzero">
            <g id="noun_Upload_97261" transform="translate(659.500000, 360.000000)">
                <path d="M96.1255556,27.3585586 C94.4066667,27.3585586 92.82,27.6216216 91.2333333,27.8846847 C89.25,12.2324324 75.7633333,0 59.5,0 C43.2366667,0 29.75,12.1009009 27.7666667,27.8846847 C26.18,27.4900901 24.5933333,27.3585586 22.8744444,27.3585586 C10.1811111,27.3585586 0,37.618018 0,50.1135135 C0,62.609009 10.1811111,73 22.8744444,73 L50.2444444,73 L50.2444444,57.6108108 C50.2444444,55.9009009 46.1455556,55.9009009 44.4266667,55.9009009 L34.6422222,55.9009009 C31.9977778,55.9009009 30.5433333,52.0864865 32.3944444,50.1135135 L56.9877778,22.2288288 C58.1777778,20.9135135 60.2933333,20.781982 61.6155556,22.0972973 L86.2088889,50.1135135 C87.9277778,52.0864865 86.6055556,55.7693694 83.9611111,55.7693694 L74.1766667,55.7693694 C72.4577778,55.7693694 68.7555556,55.7693694 68.7555556,57.4792793 L68.7555556,73 L96.1255556,73 C108.818889,73 119,62.7405405 119,50.1135135 C119,37.4864865 108.818889,27.3585586 96.1255556,27.3585586 Z" id="Path"></path>
            </g>
        </g>
    </g>
</svg>