<?xml version="1.0" encoding="UTF-8"?>
<svg width="80px" height="35px" viewBox="0 0 80 35" version="1.1" xmlns="http://www.w3.org/2000/svg" xmlns:xlink="http://www.w3.org/1999/xlink">
    <!-- Generator: Sketch 58 (84663) - https://sketch.com -->
    <title>Group 5</title>
    <desc>Created with Sketch.</desc>
    <g id="Desktop" stroke="none" stroke-width="1" fill="none" fill-rule="evenodd">
        <g id="2.1.image-upload" transform="translate(-680.000000, -355.000000)">
            <g id="Group-5" transform="translate(680.000000, 355.000000)">
                <g id="Group-4">
                    <rect id="Rectangle" fill="#D8D8D8" x="0" y="0" width="30" height="35" rx="3"></rect>
                    <path d="M7.488,14.5 C7.648,14.5 7.788,14.446 7.908,14.338 C8.028,14.23 8.088,14.06 8.088,13.828 C8.088,13.596 8.028,13.426 7.908,13.318 C7.788,13.21 7.648,13.156 7.488,13.156 C7.32,13.156 7.176,13.21 7.056,13.318 C6.936,13.426 6.876,13.596 6.876,13.828 C6.876,14.06 6.936,14.23 7.056,14.338 C7.176,14.446 7.32,14.5 7.488,14.5 Z M6.264,24.88 C6.872,24.88 7.314,24.71 7.59,24.37 C7.866,24.03 8.004,23.56 8.004,22.96 L8.004,22.96 L8.004,15.568 L6.96,15.568 L6.96,22.996 C6.96,23.388 6.882,23.654 6.726,23.794 C6.57,23.934 6.368,24.004 6.12,24.004 C5.976,24.004 5.844,23.994 5.724,23.974 C5.604,23.954 5.488,23.924 5.376,23.884 L5.376,23.884 L5.376,24.736 C5.48,24.776 5.606,24.81 5.754,24.838 C5.902,24.866 6.072,24.88 6.264,24.88 Z M11.2365,24.88 L11.2365,22.24 C11.2365,22.088 11.2285,21.908 11.2125,21.7 C11.1965,21.492 11.1805,21.32 11.1645,21.184 L11.1645,21.184 L11.2365,21.184 C11.4125,21.44 11.6485,21.66 11.9445,21.844 C12.2405,22.028 12.6245,22.12 13.0965,22.12 C13.8405,22.12 14.4405,21.836 14.8965,21.268 C15.3525,20.7 15.5805,19.868 15.5805,18.772 C15.5805,17.66 15.3545,16.828 14.9025,16.276 C14.4505,15.724 13.8525,15.448 13.1085,15.448 C12.6205,15.448 12.2305,15.544 11.9385,15.736 C11.6465,15.928 11.4125,16.164 11.2365,16.444 L11.2365,16.444 L11.1885,16.444 L11.0445,15.568 L10.1925,15.568 L10.1925,24.88 L11.2365,24.88 Z M12.9285,21.244 C12.2805,21.244 11.8365,21.03 11.5965,20.602 C11.3565,20.174 11.2365,19.564 11.2365,18.772 L11.2365,18.772 L11.2365,18.568 C11.2365,17.816 11.3645,17.256 11.6205,16.888 C11.8765,16.52 12.3045,16.336 12.9045,16.336 C13.4485,16.336 13.8505,16.556 14.1105,16.996 C14.3705,17.436 14.5005,18.024 14.5005,18.76 C14.5005,19.24 14.4445,19.668 14.3325,20.044 C14.2205,20.42 14.0485,20.714 13.8165,20.926 C13.5845,21.138 13.2885,21.244 12.9285,21.244 Z M19.749,24.88 C20.677,24.88 21.365,24.648 21.813,24.184 C22.261,23.72 22.485,23.028 22.485,22.108 L22.485,22.108 L22.485,15.568 L21.645,15.568 L21.513,16.42 L21.453,16.42 C21.229,16.092 20.957,15.848 20.637,15.688 C20.317,15.528 19.961,15.448 19.569,15.448 C18.793,15.448 18.187,15.75 17.751,16.354 C17.315,16.958 17.097,17.772 17.097,18.796 C17.097,19.844 17.315,20.66 17.751,21.244 C18.187,21.828 18.797,22.12 19.581,22.12 C20.405,22.12 21.025,21.796 21.441,21.148 L21.441,21.148 L21.489,21.148 C21.481,21.22 21.473,21.346 21.465,21.526 C21.457,21.706 21.453,21.844 21.453,21.94 L21.453,22.192 C21.453,22.752 21.307,23.194 21.015,23.518 C20.723,23.842 20.321,24.004 19.809,24.004 C18.921,24.004 18.173,23.836 17.565,23.5 L17.565,23.5 L17.565,24.472 C18.141,24.744 18.869,24.88 19.749,24.88 Z M19.761,21.256 C19.241,21.256 18.847,21.046 18.579,20.626 C18.311,20.206 18.177,19.6 18.177,18.808 C18.177,18.016 18.313,17.406 18.585,16.978 C18.857,16.55 19.241,16.336 19.737,16.336 C20.329,16.336 20.765,16.528 21.045,16.912 C21.325,17.296 21.465,17.924 21.465,18.796 L21.465,18.796 L21.465,19.048 C21.465,19.824 21.329,20.386 21.057,20.734 C20.785,21.082 20.353,21.256 19.761,21.256 Z" id="jpg" fill="#838383" fill-rule="nonzero"></path>
                </g>
                <g id="Group-2" transform="translate(50.000000, 0.000000)">
                    <rect id="Rectangle-Copy" fill="#D8D8D8" x="0" y="0" width="30" height="35" rx="3"></rect>
                    <path d="M5.992,24.88 L5.992,22.24 C5.992,22.088 5.984,21.908 5.968,21.7 C5.952,21.492 5.936,21.32 5.92,21.184 L5.92,21.184 L5.992,21.184 C6.168,21.44 6.404,21.66 6.7,21.844 C6.996,22.028 7.38,22.12 7.852,22.12 C8.596,22.12 9.196,21.836 9.652,21.268 C10.108,20.7 10.336,19.868 10.336,18.772 C10.336,17.66 10.11,16.828 9.658,16.276 C9.206,15.724 8.608,15.448 7.864,15.448 C7.376,15.448 6.986,15.544 6.694,15.736 C6.402,15.928 6.168,16.164 5.992,16.444 L5.992,16.444 L5.944,16.444 L5.8,15.568 L4.948,15.568 L4.948,24.88 L5.992,24.88 Z M7.684,21.244 C7.036,21.244 6.592,21.03 6.352,20.602 C6.112,20.174 5.992,19.564 5.992,18.772 L5.992,18.772 L5.992,18.568 C5.992,17.816 6.12,17.256 6.376,16.888 C6.632,16.52 7.06,16.336 7.66,16.336 C8.204,16.336 8.606,16.556 8.866,16.996 C9.126,17.436 9.256,18.024 9.256,18.76 C9.256,19.24 9.2,19.668 9.088,20.044 C8.976,20.42 8.804,20.714 8.572,20.926 C8.34,21.138 8.044,21.244 7.684,21.244 Z M13.2325,22 L13.2325,18.664 C13.2325,17.912 13.3565,17.336 13.6045,16.936 C13.8525,16.536 14.3085,16.336 14.9725,16.336 C15.8525,16.336 16.2925,16.852 16.2925,17.884 L16.2925,17.884 L16.2925,22 L17.3365,22 L17.3365,17.812 C17.3365,16.988 17.1505,16.388 16.7785,16.012 C16.4065,15.636 15.8605,15.448 15.1405,15.448 C14.7565,15.448 14.3925,15.53 14.0485,15.694 C13.7045,15.858 13.4365,16.108 13.2445,16.444 L13.2445,16.444 L13.1845,16.444 L13.0285,15.568 L12.1885,15.568 L12.1885,22 L13.2325,22 Z M21.805,24.88 C22.733,24.88 23.421,24.648 23.869,24.184 C24.317,23.72 24.541,23.028 24.541,22.108 L24.541,22.108 L24.541,15.568 L23.701,15.568 L23.569,16.42 L23.509,16.42 C23.285,16.092 23.013,15.848 22.693,15.688 C22.373,15.528 22.017,15.448 21.625,15.448 C20.849,15.448 20.243,15.75 19.807,16.354 C19.371,16.958 19.153,17.772 19.153,18.796 C19.153,19.844 19.371,20.66 19.807,21.244 C20.243,21.828 20.853,22.12 21.637,22.12 C22.461,22.12 23.081,21.796 23.497,21.148 L23.497,21.148 L23.545,21.148 C23.537,21.22 23.529,21.346 23.521,21.526 C23.513,21.706 23.509,21.844 23.509,21.94 L23.509,22.192 C23.509,22.752 23.363,23.194 23.071,23.518 C22.779,23.842 22.377,24.004 21.865,24.004 C20.977,24.004 20.229,23.836 19.621,23.5 L19.621,23.5 L19.621,24.472 C20.197,24.744 20.925,24.88 21.805,24.88 Z M21.817,21.256 C21.297,21.256 20.903,21.046 20.635,20.626 C20.367,20.206 20.233,19.6 20.233,18.808 C20.233,18.016 20.369,17.406 20.641,16.978 C20.913,16.55 21.297,16.336 21.793,16.336 C22.385,16.336 22.821,16.528 23.101,16.912 C23.381,17.296 23.521,17.924 23.521,18.796 L23.521,18.796 L23.521,19.048 C23.521,19.824 23.385,20.386 23.113,20.734 C22.841,21.082 22.409,21.256 21.817,21.256 Z" id="png" fill="#838383" fill-rule="nonzero"></path>
                </g>
            </g>
        </g>
    </g>
</svg>