<?xml version="1.0" encoding="UTF-8"?>
<svg width="70px" height="70px" viewBox="0 0 70 70" version="1.1" xmlns="http://www.w3.org/2000/svg" xmlns:xlink="http://www.w3.org/1999/xlink">
    <!-- Generator: Sketch 58 (84663) - https://sketch.com -->
    <title>Ok</title>
    <desc>Created with Sketch.</desc>
    <g id="Desktop" stroke="none" stroke-width="1" fill="none" fill-rule="evenodd">
        <g id="payment-result-screen" transform="translate(-869.000000, -152.000000)">
            <g id="Ok" transform="translate(869.000000, 152.000000)">
                <circle id="Oval" fill="#3EEDBF" cx="35" cy="35" r="35"></circle>
                <path d="M29.3148188,51.5789474 C28.5935657,51.5789474 27.917391,51.3124995 27.4215295,50.8240116 L15.6110105,38.8338558 C14.4840526,37.8124722 14.4389743,36.0805608 15.5208539,34.9703612 C16.5576552,33.8601616 18.3157095,33.8157536 19.4426675,34.8815452 L28.0977042,40.9654391 C28.5935657,41.4095189 29.3598971,41.320703 29.7656019,40.7878071 L50.276236,15.8305199 C51.1778023,14.6315043 52.9358567,14.3650564 54.1529712,15.2976241 C55.3700858,16.1857838 55.6405557,17.9176952 54.693911,19.1167107 L31.5236563,50.4687478 C31.0277948,51.0904595 30.3065417,51.4901314 29.5402104,51.5345394 C29.4500537,51.5789474 29.4049754,51.5789474 29.3148188,51.5789474 Z" id="Path" fill="#FFFFFF" fill-rule="nonzero"></path>
            </g>
        </g>
    </g>
</svg>